<svg width="28" height="20" viewBox="0 0 28 20" fill="none" xmlns="http://www.w3.org/2000/svg">
<path d="M22 0H6C5.46957 0 4.96086 0.210714 4.58579 0.585786C4.21071 0.960859 4 1.46957 4 2V18C4 18.5304 4.21071 19.0391 4.58579 19.4142C4.96086 19.7893 5.46957 20 6 20H22C22.5304 20 23.0391 19.7893 23.4142 19.4142C23.7893 19.0391 24 18.5304 24 18V2C24 1.46957 23.7893 0.960859 23.4142 0.585786C23.0391 0.210714 22.5304 0 22 0ZM22 18H6V2H22V18ZM28 1V19C28 19.2652 27.8946 19.5196 27.7071 19.7071C27.5196 19.8946 27.2652 20 27 20C26.7348 20 26.4804 19.8946 26.2929 19.7071C26.1054 19.5196 26 19.2652 26 19V1C26 0.734784 26.1054 0.48043 26.2929 0.292893C26.4804 0.105357 26.7348 0 27 0C27.2652 0 27.5196 0.105357 27.7071 0.292893C27.8946 0.48043 28 0.734784 28 1ZM2 1V19C2 19.2652 1.89464 19.5196 1.70711 19.7071C1.51957 19.8946 1.26522 20 1 20C0.734784 20 0.48043 19.8946 0.292893 19.7071C0.105357 19.5196 0 19.2652 0 19V1C0 0.734784 0.105357 0.48043 0.292893 0.292893C0.48043 0.105357 0.734784 0 1 0C1.26522 0 1.51957 0.105357 1.70711 0.292893C1.89464 0.48043 2 0.734784 2 1Z" fill="#34252F"/>
</svg>
